<svg xmlns="http://www.w3.org/2000/svg" viewBox="0 0 66 82.5" x="0px" y="0px"><path fill="#000000" fill-rule="evenodd" d="M197.606057,235.08172 C200.832733,236.320894 204.33706,237 208,237 C209.161877,237 210.315088,236.931724 211.455721,236.796337 C212.004156,236.731241 212.501521,237.123065 212.566617,237.6715 C212.631714,238.219935 212.23989,238.7173 211.691455,238.782396 C210.47263,238.927064 209.240705,239 208,239 C190.879173,239 177,225.120827 177,208 C177,190.879173 190.879173,177 208,177 C225.120827,177 239,190.879173 239,208 C239,209.240705 238.927064,210.47263 238.782396,211.691455 C238.7173,212.23989 238.219935,212.631714 237.6715,212.566617 C237.123065,212.501521 236.731241,212.004156 236.796337,211.455721 C236.931724,210.315088 237,209.161877 237,208 C237,198.204783 232.143695,189.543816 224.707418,184.293433 L223.970143,187.242536 C223.89934,187.525744 223.708319,187.763874 223.447214,187.894427 L217.915851,190.660108 L217.043982,196.763197 L220.83205,202.4453 C221.138403,202.904828 221.014229,203.525698 220.5547,203.83205 L215.331344,207.314288 L218.868243,213.503861 C219.142253,213.983379 218.975656,214.594233 218.496139,214.868243 C218.016621,215.142253 217.405767,214.975656 217.131757,214.496139 L213.131757,207.496139 C212.870995,207.039806 213.007989,206.45949 213.4453,206.16795 L218.61325,202.72265 L215.16795,197.5547 C215.031473,197.349985 214.975256,197.102143 215.010051,196.858579 L216.010051,189.858579 C216.056457,189.533732 216.259285,189.252324 216.552786,189.105573 L222.141408,186.311262 L222.935107,183.136468 C218.572753,180.510439 213.462767,179 208,179 C194.570818,179 183.273601,188.128027 179.97435,200.518079 L186.190945,205.846589 L190.628609,204.071523 C190.80872,203.999479 191.005898,203.981376 191.196116,204.019419 L196.196116,205.019419 C196.567533,205.093703 196.865102,205.371457 196.964764,205.736883 L199.823948,216.220557 L205.316228,218.051317 C205.78834,218.208688 206.072892,218.689262 205.98387,219.178885 L203.98387,230.178885 C203.937337,230.434814 203.79291,230.662539 203.581238,230.813733 L197.606057,235.08172 Z M202.088691,229.422032 L203.860984,219.67442 L198.683772,217.948683 C198.366577,217.842952 198.12321,217.585689 198.035236,217.263117 L195.197852,206.859374 L191.095382,206.03888 L186.371391,207.928477 C186.025728,208.066742 185.631873,208.00154 185.349209,207.759257 L179.478226,202.726986 C179.164123,204.436896 179,206.199281 179,208 C179,219.524852 185.722774,229.479517 195.460665,234.156335 L202.088691,229.422032 Z M230,243 C222.820298,243 217,237.179702 217,230 C217,222.820298 222.820298,217 230,217 C237.179702,217 243,222.820298 243,230 C243,237.179702 237.179702,243 230,243 Z M230,241 C236.075132,241 241,236.075132 241,230 C241,223.924868 236.075132,219 230,219 C223.924868,219 219,223.924868 219,230 C219,236.075132 223.924868,241 230,241 Z M231,224 L231,229 L234,229 C234.552285,229 235,229.447715 235,230 C235,230.552285 234.552285,231 234,231 L230,231 C229.447715,231 229,230.552285 229,230 L229,224 C229,223.447715 229.447715,223 230,223 C230.552285,223 231,223.447715 231,224 Z" transform="translate(-177 -177)"/><text x="0" y="81" fill="#000000" font-size="5px" font-weight="bold" font-family="'Helvetica Neue', Helvetica, Arial-Unicode, Arial, Sans-serif">Created by Andrejs Kirma</text><text x="0" y="86" fill="#000000" font-size="5px" font-weight="bold" font-family="'Helvetica Neue', Helvetica, Arial-Unicode, Arial, Sans-serif">from the Noun Project</text></svg>