<svg xmlns="http://www.w3.org/2000/svg" data-name="Layer 1" viewBox="0 0 100 125" x="0px" y="0px"><title>Artboard 87</title><path d="M50,53A14,14,0,1,0,64,67,14,14,0,0,0,50,53Zm0,26A12,12,0,1,1,62,67,12,12,0,0,1,50,79Z"/><path d="M67,48h4v6l-5,5a18,18,0,0,0-15-9.83V37.2l9-5V27h4V17H54V27h4v4l-9,5v4.56l-9-3.93V28h4V18H34V28h4V38l11,4.81v6.32A18,18,0,0,0,33.24,60.51L28,56.1V51h4V41H22V51h4v6l6.59,5.54A17.72,17.72,0,0,0,35,77h0v2h1.58a17.93,17.93,0,0,0,26.84,0H65V77h0a17.81,17.81,0,0,0,1.91-16.11L73,54.79V48h4V38H67ZM56,19h6v6H56ZM36,20h6v6H36ZM24,43h6v6H24ZM50,83A16,16,0,1,1,66,67,16,16,0,0,1,50,83ZM69,40h6v6H69Z"/><rect x="13.77" y="77" width="3.54" height="2"/><rect x="29.69" y="77" width="3.54" height="2"/><rect x="24.38" y="77" width="3.54" height="2"/><rect x="19.08" y="77" width="3.54" height="2"/><rect x="77.38" y="77" width="3.54" height="2"/><rect x="82.69" y="77" width="3.54" height="2"/><rect x="72.08" y="77" width="3.54" height="2"/><rect x="66.77" y="77" width="3.54" height="2"/><text x="0" y="115" fill="#000000" font-size="5px" font-weight="bold" font-family="'Helvetica Neue', Helvetica, Arial-Unicode, Arial, Sans-serif">Created by James Fok</text><text x="0" y="120" fill="#000000" font-size="5px" font-weight="bold" font-family="'Helvetica Neue', Helvetica, Arial-Unicode, Arial, Sans-serif">from the Noun Project</text></svg>